<svg enable-background="new 0 0 100 100" height="100" viewBox="0 0 100 100" width="100" xmlns="http://www.w3.org/2000/svg">
    <defs>
        <linearGradient id="gradient" x1="0%" y1="0%" x2="100%" y2="0%">
        <stop offset="0%" style="stop-color:#F04A5E;" />
        <stop offset="100%" style="stop-color:#F7926D;" />
        </linearGradient>
    </defs>
    <path fill="url(#gradient)" d="m59.689 6.477c-20.597 5.491-33.679 11.445-33.679 11.445v14.627 3.575 41.611c-3.035-1.045-6.717-1.205-10.456-.232-8.087 2.105-13.37 8.702-11.799 14.735s9.399 9.218 17.486 7.113c6.853-1.784 11.69-6.793 12.052-11.952h.009v-.188c.015-.309.018-.616 0-.923v-52.723c6.439-2.085 16.557-4.968 27.963-6.764 12.198-1.92 21.861-2.39 27.964-2.435v44.828c-3.037-1.052-6.726-1.213-10.471-.239-8.087 2.105-13.37 8.703-11.8 14.735 1.57 6.034 9.399 9.219 17.486 7.113 7.291-1.897 12.301-7.448 12.066-12.943h.01v-53.313-1.539-23.27c.001 0-17.541 1.596-36.831 6.739zm-26.292 22.355-.095-6.361s16.407-6.299 28.355-9.208c18.35-4.467 27.571-4.744 27.571-4.744v8.809s-9.409.414-27.964 4.261c-15.098 3.129-27.867 7.243-27.867 7.243z"/>
</svg>